<?xml version="1.0" standalone="no"?>
<!DOCTYPE svg PUBLIC "-//W3C//DTD SVG 20010904//EN"
 "http://www.w3.org/TR/2001/REC-SVG-20010904/DTD/svg10.dtd">
<svg version="1.0" xmlns="http://www.w3.org/2000/svg"
 width="826.000000pt" height="826.000000pt" viewBox="0 0 826.000000 826.000000"
 preserveAspectRatio="xMidYMid meet">

<g transform="translate(0.000000,826.000000) scale(0.100000,-0.100000)"
fill="#000000" stroke="none">
<path d="M1686 6528 c4 -7 435 -618 957 -1358 847 -1200 948 -1346 937 -1364
-10 -16 -718 -832 -1055 -1216 -55 -63 -240 -275 -409 -470 -170 -195 -318
-365 -329 -378 l-20 -22 211 0 212 0 348 398 c400 459 1188 1363 1223 1405
l24 29 645 -916 645 -915 753 0 c600 -1 752 2 745 12 -4 6 -190 271 -413 587
-1603 2269 -1542 2181 -1528 2198 7 10 177 206 378 437 201 231 581 668 844
970 264 303 493 565 509 583 l31 32 -215 0 -214 0 -80 -93 c-82 -95 -301 -347
-1029 -1182 -230 -264 -422 -481 -426 -483 -6 -2 -214 290 -1027 1443 l-219
310 -753 3 c-602 2 -751 0 -745 -10z m2799 -2390 c809 -1145 1472 -2085 1473
-2090 2 -4 -158 -8 -355 -8 l-359 0 -164 233 c-1410 1996 -2780 3939 -2780
3943 0 2 161 4 358 4 l357 0 1470 -2082z"/>
</g>
</svg>
